<?xml version="1.0" ?><svg id="Layer_1" style="enable-background:new 0 0 128 128;" version="1.1" viewBox="0 0 128 128" xml:space="preserve" xmlns="http://www.w3.org/2000/svg" xmlns:xlink="http://www.w3.org/1999/xlink"><g><polygon fill="#eee" points="113,25 89,25 89,1 13,1 13,57 21,57 21,9 81,9 81,33 105,33 105,119 13,119 13,127 113,127  "/><path  fill="#eee" d="M21,94h3.5C30.8,94,36,88.8,36,82.5S30.8,71,24.5,71H13v36h8V94z M21,79h3.5c1.9,0,3.5,1.6,3.5,3.5S26.4,86,24.5,86H21V79z   "/><polygon  fill="#eee" points="58.6,107 66,107 66,71 58,71 58,88.9 48.4,71 41,71 41,107 49,107 49,89.1  "/><path  fill="#eee" d="M83,79c2.2,0,4,1.8,4,4h8c0-6.6-5.4-12-12-12s-12,5.4-12,12v12c0,6.6,5.4,12,12,12s12-5.4,12-12v-8H83v8h4c0,2.2-1.8,4-4,4   s-4-1.8-4-4V83C79,80.8,80.8,79,83,79z"/></g></svg>