<?xml version="1.0" encoding="utf-8"?>
<!-- Svg Vector Icons : http://www.onlinewebfonts.com/icon -->
<!DOCTYPE svg PUBLIC "-//W3C//DTD SVG 1.1//EN" "http://www.w3.org/Graphics/SVG/1.1/DTD/svg11.dtd">
<svg version="1.1" xmlns="http://www.w3.org/2000/svg" xmlns:xlink="http://www.w3.org/1999/xlink" x="0px" y="0px" viewBox="0 0 1000 1000" enable-background="new 0 0 1000 1000" xml:space="preserve">
<metadata> Svg Vector Icons : http://www.onlinewebfonts.com/icon </metadata>
<g><g transform="translate(0.000000,511.000000) scale(0.100000,-0.100000)"><path fill="#eee" d="M1404.1,3769.2c-172.6-30.7-397-155.3-535.1-295.3C443.3,3050.1,451,2371.2,882.5,1949.2c107.4-105.5,343.3-247.4,408.5-247.4c23,0,26.8-111.2,26.8-642.5V418.8l-515.9-5.8c-487.1-5.7-519.7-7.7-569.6-46C130.7,292.3,100,230.9,100,110.1c0-120.8,30.7-182.2,132.3-257c51.8-40.3,72.9-40.3,1413.4-46l1359.7-3.8v-642.5c0-529.3-3.8-642.5-26.8-642.5c-71,0-308.8-145.7-423.8-260.8c-517.8-517.8-370.1-1396.2,285.8-1714.5c920.5-444.9,1875.6,510.1,1430.7,1430.7c-99.7,205.2-266.6,377.8-462.2,475.6c-74.8,38.4-149.6,69-163,69c-23,0-26.8,113.2-26.8,642.5v642.5H5000h1380.8v-642.5c0-529.3-3.8-642.5-26.9-642.5c-13.4,0-88.2-30.7-163-69c-195.6-97.8-362.5-270.4-462.2-475.6c-444.9-920.6,510.1-1875.6,1430.7-1430.7c655.9,318.3,803.6,1196.7,285.8,1714.5c-115.1,115.1-352.9,260.8-423.8,260.8c-23,0-26.9,113.2-26.9,642.5v642.5l1359.7,3.8c1340.5,5.8,1361.6,5.8,1413.4,46c101.7,74.8,132.3,136.2,132.3,257c0,120.8-30.7,182.2-132.3,257c-49.9,38.4-82.5,40.3-569.6,46l-515.9,5.8v640.5c0,531.2,3.8,642.5,26.9,642.5c72.9,0,303,143.8,421.9,262.7c726.8,724.9,103.5,1958.1-912.9,1812.3c-864.9-122.7-1217.8-1196.7-600.3-1814.2c115.1-115.1,352.9-260.8,423.8-260.8c23,0,26.9-113.1,26.9-642.5V416.9H6687.7H5306.9v642.5c0,529.3,3.8,642.5,26.9,642.5c72.9,0,303,143.8,421.9,262.7c331.8,329.9,408.5,797.8,201.4,1227.4c-314.5,655.9-1192.9,801.6-1712.6,281.9c-420-421.9-420-1098.9,1.9-1515.1c107.4-105.5,295.3-224.4,395.1-247.4l51.8-13.4v-640.5V416.9H3312.3H1931.5v640.5V1698l53.7,13.4c97.8,23,285.8,141.9,393.2,247.4c421.9,416.2,421.9,1093.1,1.9,1515.1C2123.3,3730.9,1768.5,3838.3,1404.1,3769.2z M1766.6,3155.5c164.9-49.9,318.4-260.8,318.4-437.3c0-237.8-222.5-460.3-460.3-460.3c-120.8,0-218.6,44.1-316.4,143.8c-195.6,193.7-195.6,439.2,0,632.9C1442.5,3170.9,1586.3,3207.3,1766.6,3155.5z M5141.9,3155.5c164.9-49.9,318.3-260.8,318.3-437.3c0-237.8-222.5-460.3-460.3-460.3c-237.8,0-460.3,222.5-460.3,460.3c0,120.8,44.1,218.6,143.8,316.4C4817.8,3170.9,4961.6,3207.3,5141.9,3155.5z M8517.3,3155.5c164.9-49.9,318.3-260.8,318.3-437.3c0-237.8-222.5-460.3-460.3-460.3c-120.8,0-218.6,44.1-316.4,143.8c-195.6,193.7-195.6,439.2,0,632.9C8193.2,3170.9,8337,3207.3,8517.3,3155.5z M3454.2-2060.9c164.9-49.9,318.4-260.8,318.4-437.3c0-237.8-222.5-460.3-460.3-460.3c-176.4,0-387.4,153.4-437.3,318.3c-53.7,180.3-15.3,324.1,120.8,458.4C3130.1-2045.5,3274-2009.1,3454.2-2060.9z M6829.6-2060.9c164.9-49.9,318.4-260.8,318.4-437.3c0-237.8-222.5-460.3-460.3-460.3c-237.8,0-460.3,222.5-460.3,460.3c0,120.8,44.1,218.6,143.8,316.4C6505.5-2045.5,6649.3-2009.1,6829.6-2060.9z"/></g></g>
</svg>